<?xml version="1.0" encoding="UTF-8"?>
<svg xmlns="http://www.w3.org/2000/svg" version="1.1" viewBox="0 0 814 430.9">
  <defs>
    <style>
      .cls-1 {
        stroke-miterlimit: 10;
      }

      .cls-1, .cls-2 {
        fill: none;
        stroke: #828282;
      }

      .cls-2 {
        stroke-linejoin: round;
      }

      .cls-3 {
        fill: #ddd;
      }
    </style>
  </defs>
  <!-- Generator: Adobe Illustrator 28.6.0, SVG Export Plug-In . SVG Version: 1.2.0 Build 709)  -->
  <g>
    <g id="Ebene_1">
      <g>
        <path class="cls-3" d="M585.9,377.8c1.8.2,2.5-3.2,4.7-.7.3.4,1-.2,1.2-.6,1.1-2.2,3.1-.6,3.6-.2,1.7,1.3,3.6,1.4,5.4,2.1,2.1.9,4.2.6,5.5-.5,1.6-1.4,3.3-1.5,4.7-1,3.4,1,6.6,1.1,9.8-1.2.5,2.6,1.6,3.9,3.8,2.7.7,1,.3,2.1.5,3.1s.3,2.5,2.1,1.6l.6-1.6c0,1.5.7,2.1,1.8,1.2,2-1.5,4.2-2.8,5.5-5.3-.9-1.4-1.7-2.8,0-4,2-1.3,4-2.4,6.1-.2,1.1-.9,2.2-1.7,3.2-2.6q2.8-2.8,5.8.2c1.9-1.9,3.9-2.2,5.3.8,3.8-3.1,7.3-5.9,12.6-4.8,2.8.6,4.2,2.7,6.2,4.2,1.5,1.1,2.8,1.5,4.3.6,1.7,1.3,2.7,3.2,4.7,4.2,1.6-2.1,1.7-4,0-6.1-2.4-2.9-5.8-5.4-3.8-9.9,0-.2,0-.5,0-.6-2.8-2.7.2-4.8.6-7-.8-.7-1.7-1.1-1.9-2.6,2,0,3.4-2.3,5.8-1.1.3.1,2.6-.4,3-1.7.5-1.9,2.2-2.2,3.5-2.7,1.7-.7,2.9-1.8,4.1-3.1,3.9-4.5,6.6-10.3,13-12.2.6-.2,1.7-1,1.2-1.8-1.3-2.3.6-3.8,1-5.6,0-.2.6-.3,1-.5.4,1,.8,1.8,1.3,3,.9-2.6,3.2-.3,4.5-1.6.9-.9,1.8-1,2.5,0,.5.8,1.4.3,1.9.9,2.2-2.1,3.3.1,4.7,1.2l.3-.9c.4-.6,1.2-.9,1.5-.6,1.4,1.9,3.2.2,4.7.6.7.2,1.3-.4,1.5-.9.2-.7,0-1.2-.9-1.6-2.1-1.1-3.8-3.1-6.6-2,0-2.7,2.1-2.8,3.5-3.1,1.6-.4,3.4-.2,4.1-2.2-.7-.9-1.7-1-2.6-1.3-1.9-.8-3.4-4.4-2.1-4.9,2.6-1,3.4-3.9,5.7-4.4.6-1.1-.3-1.3-.5-1.9,0-.6-.6-1.2-.8-1.5-4.3,1.6-6.6,1.5-7.2-.6,1-.5,2-.9,2.6-1.3-1-2-1.7-3.4-3.3-3.8-1.8-.5-2.1-1.9-2.5-3,.6-1.5,2.6-.4,2.6-2.3s1.4-2.9-.2-4c.6-1.2,1.4-.9,2-1,1.6-.2,4.3-3.6,3.7-4.9-1.6-3.4-1.2-7.9-5.8-9.3.7-1.6,2.4-1.8,2.7-3.1-1.1-2-.5-4.4-1.9-6.1,3.6-2.4,4.5,1.2,6.4,3.2.3-3.6,2.4-4.2,4.7-3.2,1,.4,1.4.1,1.9-.2,4.1-2.7,8.2-5.4,10.6-10-.5-.8-1.1-1.6-1.6-2.4-.8-1.4-.3-2.6,1.2-2.4,2.6.4,3.1-1.7,3.9-3,.6-1,.3-2.7-1.1-3.7-1.1-.8-2.6-2-2.4-3.4.5-3.8-1.7-6.2-3.6-8.8-.7.1-1.1,0-1.5.3-2,2.1-4.1,1.5-6.2,0-1-.7-2-1.6-3.1-2.1-.6-.3-.9-.9-1.8-.8-3.6.6-6.1-2.3-9.5-2.9,1.8-1,1.8-4.9,5.6-2.5,0-5.7,6.1-3.3,7.8-6.5.2-1.3-1.5-1.4-1.4-2.6,3.8-3.7,8.5-4.1,12.1-.9,1.3,1.1,2.5.9,3.4-.3,1.7-2.4.6-5.5,1.8-8.1.2-.5-1.3-1.8-2-2.7h1.2c2.6-2,3.7-4.4,2.9-7.8-.8-3.1,3.3-8.8,6.5-9.2,1.7-.2,3-1.5,4.7-1.6,2.3,2.6,2.7,6,.6,9.3-2.7,4.2-4.8,8.8-8.3,12.5-1.7,1.7-1.9,6.5-.6,8.4-.2,1.1-1.5.7-1.9,1.5,1.8,5.1,2.1,4.2,4.8,2.4,2.2.9,3.1,3.1,4.2,5.4,1.6-1.6,2-4,4.1-5,1.2,1,1.1,2.6,2.1,4.2,6.9-1.3,13.9-2.6,21.5-3.9-2.6-2.3-2.1-4.9-2.1-7.4s.3-3.8-1.3-5.1c.3-1.2,1.3-1.3,2-1.8.2-1.1-.7-1.7-1.2-2.4-.4-.5-1.4-1-.9-1.5,2.1-2.2-.2-2.1-1.3-2.9-.8-.6-2.2-.7-2.2-2.5,1.6-1,3.9-.5,5.6-1.8,1.6-1.2,3.8-1.6,2.5-4.4-.5-1,1.1-1.3,1.3-2.1-1.5-1.4-1.4-3.4.5-6,0-1.1-1.5-1-1.8-2,.6-1.4,1.9-2.4,3.1-3.5.9-.9,2.9-.6,2.5-2.8-.3-1.8-2.1-1.5-2.8-2.5-.2-.2-.4-.4-.6-.6-1.2.5-2.3,1.5-4.2.4,1.7-3.3-1.4-7.5,2.4-11-2.9-.3-2.8-2.9-4.1-4.4v-1c-2.3-3.8-7.8-4-8.4-9.9-.4-3.6-3-7.1-2.1-11.4-3.2-.7-5.1-3.2-6.9-5.6.4-1.4,1.9-1.6,3-2.9-2.8-.8-4.2-3.1-6.4-4.4-2.1-1.2-2.4-3.1-.9-4.9,1.7-2,2-4,.6-6.3-.6-1-1.3-2.3-.6-3.4,1.8-2.9,3.8-5.7,5.9-8.4,1.1-1.4,2.7-2.4,3.6-3.8,1.8-2.7.3-5-1.5-6.9,1.6-2.3-.7-5.2,1.7-6.9-1-1.3-2.8-.7-3.6-2.1q1.9-3.7.3-6.8c-.4-.7-.2-1.2,0-1.9.9-3.1-1.3-5.5-4.3-4.6-1.8.5-3.3.9-5,0-1.1.4-1.6,1.7-3.1,1.9-.6-1.4-1.7-1.7-3.1-1l-.3-.6c-.7-.3-.8-1.1-1.5-1.6-3.4-2.3-3.3-2.4-6.4,0-.7-.7-1.4-1.4-2.1-2.1,1.7-2.8,1.3-4.1-2.3-7.4-3.5,3.7-5.9.3-8.1-1.8-2.2-2.1-3.6-2.4-5.4,0-.8,1.1-2.2,1-3,.3-2.3-2.2-3.7-.3-4,1.3-.8,4-4.4,5.7-6.4,8.7-.4.7-1.5.4-2.2-.3-.4-.4,0-.9-.3-1.2s-.6-.4-1.2-.7c-.5,1.2-1.7,1.8-3.1,2.6-1.6-1.8-3.5-2.7-6-1.1-.3.2-1.4.9-2.1,0-1.6-1.7-4.7.7-6-2.1,0-.3-1.2,0-1.8.5-1,.8-2.4.7-3.7.7-2.2,0-4.1-.3-6-1.8-2.4-1.9-6.2-2-7.4-5.7-.2-.6-.9,0-1.2-.3-1.5-1.2-4.6-1.3-3.2-4.7.4-1-.9-1.3-1.8-1.2-.6,0-.6,1.5-1.6.6-.8-.9.3-2.3-1.2-3.2-.6-.2-.8.6-1.3,1-1.8-1.4-3.8-2.5-5.9-3.2.2-.9,1.3-1.5.6-2.1-1.1-1.1-2.2-.6-3.1-.8-2-.3-4.4-.9-5.4,2.3-.5,1.8-2.5,2.3-4.2.9-1.5-1.1-2.9-.3-4.7-.8-1-3.2-5.1-3.6-7.5-6-.3-.3-1.2-.3-1.5,0-1.2,1.1-2.1.6-3.2-.3-1-.9-2.2-1.6-3.7-1.6s-1.9-.5-2.2-1.8c-.5-2.2-2.3-3.5-4.1-4.5-1.2.5-1.8,1.1-1.1,2.3l-.3-1.6c-3.4-.4-5.6-2.9-8.2-4.9-1.2-.9-3.4-2.8-5.2-.1-.4.5-2.1,0-3.8-1.3,0,2.3-2,3.7-2.8,5.9-2.2-2-4.3-2.2-6.1.4-.8,1.1-1.8.7-3.2.3,1.7-2.6-1.2-4.2-1.2-6.5,0-3.8-4.2-.2-4.7-3-2.2,2.4-3.2,2.1-4.7-.3-.8-1.2-3-1.5-4.5-1.2-.9.2-3.6.4-2.3,3,0,.1-.5.7-.9.9-2.4,1.6-1.4,4.3-1.3,6.2,0,1.3,0,2.5-.3,3.7,2.7,3,2.9,3.9.2,8-1.2,1.9-.9,3,.7,4-1.9,2.5-2.1,5.6-3.1,8.4,1,1.3,2.6,1.5,4,1.9-.6,3.6-2.4,4.8-5.6,3.1-3.4-1.9-7.2-2.2-10.6-3.6-1.1-.5-3.3.6-2.9,1.1,1.6,2.3-2.7,4.2.3,6.4-2.7,1.7-3.6,4.8-6.9,5.7-2.3.7-3.5,6.2-2.5,8.6,0,.3.4.7.3.9-1.5,2.5.2,6-2.5,8.1l-.6.5c-3.2.2-3.6-2-4.7-3.9l-.3-.9c-.3.8-.8,1.3-1.6,1.6-1.9-.7,0-3-1.9-3.8-2.1,0-3.3,2-4.9,3.4-1.7-1.6-3.9-2.2-5.8-1.6-2.3-1.5-2.3-6.5-7.3-4.4.9,1.1,1.6,2,2.4,3-.9,2.1-1.9,4.3-4.2,5.4-1.2,0-2.4-1.9-3.8-.3-.3,1,.4,1.4.9,1.9,1.2,1.6-1,2.2-1.1,2.1-2.2-2.2-2.2.5-2.9,1.3-.7.9-1.3,2-2.5,3.2-.6-3.1-3.8-3.6-5-6-.4-.8-1.1-1.7-1.8-1.2-1.9,1.5-3.4,0-4.7-.8-2.9-1.6-6.1-.4-9.1-1.4-.4,0-1.2.9-2.1,1.6-1.3-2-4.2-1.8-5.6-3.6-1.3-1.7-2.3-3.4-4.6-4.5,1.1-1,1.9-1.8,2.6-2.6l.3-.9c.5,1.4,1.4,1.5,2.1.3.5-.8,1-2.1-.6-2.4-2.4-.4-3.4-2.2-4.3-4.1-.4-.8-.8-1.8-1.9-1.5-3.6,1-5.2-1.6-7.2-3.8-1.8-2-3.4-4.3-6-5.5-1.9,0-3.1,1.6-4.1,3.1-.5.7-1.5,2.8,1.1,2.7l-1.9.3c-.7.7-1.3,1.4-2,2.1,1.2,1,2.2,2,2.6,3.2,0,1.2-1.7,1-1.6,1.9,0,1.5,1.7,1.8,1.9,3,.2,1.3-1.6,1.3-1.2,2.9,1.6,1.5,1.8,3.8-.1,5.8-.7.7-1.3,1.1-1.2,2.2.3,3.2-.1,3.7-4,5.3-1.1.4-1.5,1.6-1.8,2.5-1,3.2-.9,3.2-3.5,5.2-.5-3-4.3-2.1-5.2-5.5-.6-2.4-5.3-.7-6.3-3.8-1.5,0-1.3,1.7-2.7,1.9-2.4-1.4-3.6-4.1-6.1-6.3-1.6,3.8-5.1,5.1-8.3,6.8,2.4,4.9,3.2,9.6-.3,14.1-1,1.3-.6,2.2.3,3.1,1.3,1.3,1.3,2.4,0,3.8-1.1,1.1-1.4,2.6-1.5,4-.3,2.8-1.5,4.8-4.1,5.9-2.9,1.2-3.6,4.7-6.5,6-1.6.7-2.8,2.2-4.4,3-1.5.8-3,1.8-5,1-2.8-1.2-5.3-.4-7.8,1.2-1,.7-2.1,1.3-3.4.9-2.4-.8-4.3.3-6.2,1.6-1,.7-2,1.5-3.4,1.6-.7,0-1.6.6-1.5,1.5,0,2-1.6,2.8-2.5,4.1-2.2,3.1-5.6,2.1-8.4,2.7-1.8.4-3.2,1-4.1,2.8-1.2,2.6-3,4.8-5.6,6.2-1.7.9-1.5,2.8-2.4,4.1-1,.4-1.2-1.3-2.2-.9-.7.9-1.4,1.9-2.1,2.9,0,.1.3.3.3.6.2,6.8,6.2,9.1,10.1,12.9,1.2,1.2,1.2,2.8,2.4,3.8l.3.6c-.2,3.7.3,4.7,3.4,5.2,1.9.3,2.4,2.6,4.3,2.5,1.5,5.2,4.7,9.4,6.8,14.3.2.5.3,1.3-.3,1.9-2.8,2.9-4,7-6.9,9.8,2.4,4.1-2,4.2-3.3,6.1,0,1.9,1.5,3.2,2.9,3.9,1.3.6,2.9.7,4.3,1.4,1.4-1.2,2.9-2.4,4.8-3.2,3.8,3.1,6.6,6.9,7.3,11.9.1.9.5,2.1-.6,2.8-1.7,1.1-2.1,2.8-1.9,4.7.2,1.4-.6,1.9-1.9,1.9s-1.5.5-1.6,1.7c.6.5,1.2,1.1,1.9,1.7-.2.5-.2,1.3-.6,1.5-2.1,1.3-1.8,3.1-.8,4.7,1.5,2.4,1.2,4.1-1.3,5.3-1.1.5-1,2-2.4,2.8-1.1-3.2-4.5-1-6.4-3-1.6-1.6-4.4-1.8-5.6-4.4-1-2-4.4-2.3-3.9-5.7-1.1.7-1.8,1.2-2.5,1.6-5.5-3.4-6.8-6.9-1-10.6-.3-1.6-1.2-2.3-2.8-2.8-2.5-.8-2.9-2.4-1.2-4.6.6-.7-.4-1.1-.3-1.2-3.7-.9-7.6-1.7-11.2-3.3-.7,1.1-.7,2.6-2,3.2-1.2-.3-1.5-2.2-3.3-1.8-2.5,1.6-3.1,4.6-4.4,7.1l.2,1.9c-.4-2.7-3-3.4-4.9-1.6-.8.7-1.6,1.5-3.1,1.2-1.3-3.6-5.8-5.7-5.7-10.5,0-.7-1.1-1.5-2.8-.8-1.5.7-2.9,1.5-4.3,2.4-1.8-1.2-3.5-3.1-5.9-2.4-2.2.6-4.4,1.4-5.9,3.4-2.2-2.4-2.2-3.5,0-7.5.4-.8,1.6-1.2.3-2.2-1.1-.9-2,.1-2.4.7-2,2.8-4.8,4.2-7.9,5.4,1.5,3.3,2.9,6.5,3.8,9.8.5,1.7.3,2.6-1.6,2.5-2-.2-3.2,1-4.7,1.9-.3.2-.6.5-.9.7-.6-.7-1.1-1.4-1.6-2-1.3-.4-1.5,1.7-2.8,1.3-2.7-2.4-4.5-2.4-6.2-.6-1.8.2-1.8-1.9-3.4-1.9-1.1.3-1.2,1.6-1.7,2.1-1.3-.2-2.6,0-3.5-.6-2.3-1.4-4.1-.3-5.9.7-1.8.9-4.4.9-4.7,3.7v1.2c-2.9-.9-5.5-3.4-9.1-1.6-1,.5-2.5,0-3.7-.2-2.3-.4-3.8,0-6.2,1.3-1.1-.4-1.5-1.5-2.2-2.2-2.4.4-3.5,2.3-4.2,4.1-.4,1.1-.6,2.4-1.4,3.3-1,1.2.1,1.6.6,2.2l.9.3c-2.7,1.3-5,3.7-8.4,2.5-2.2,2.4-4.5.8-6.5-.1-1.9-.9-3.1-.2-3.7,1.1-1,2-2.7,3.3-3.7,4.5-.5,2.4,2.6,1.5,2.4,3.5l1.6,1.2c-2.2-2.1-3.9.7-6,.1-.5-.4-1.1-1.2-2.1-1.7-1.2,1.5-1.7,3.9-4.3,3.9s-.9.8-.9,1.2c.2,3.5-2,3.9-4.7,3.8-.4,0-.8.4-1.3.6-1.9-2.5.9-3.4,1.8-5.1-1.4-1.6-3.8-1.3-4.7-.6-1.6,1.2-3.5,1.2-5.1,2-1.6.7-3.1,1.2-4.1,2.8-.9,1.4-2,2.3-4.1.8-1.4-1.1-3.7-1.1-5.4,1.1-.8-3.2-4.6,1-5.4-2.6.5-.8,1.1-1.7,1.7-2.7-1.9-3.1-5.2-5.2-6.5-8.9-.3-.9-2.2-1.2-3.3-.3-1.5,1.1-2.4.4-3.4-.6.9-3,3.9-2.6,6-3.6-1.9-3.9-4.2-4.3-7.9-2.4-1.7.9-4,.7-5.8,2.8-1.9-2.9-5.3-3.2-7.7-4.8-2.7-1.8-4.9-2.9-8.2-3.1-3.7-.2-4-.6-5.6,2.6-.3.6-.6,1.3-.7,1.6-4.1.2-7.9.3-10.8-2.8h-1.2c-1-1.1-2.2-2-2.8-3.4,2.2-3.1,3.3-3.3,6.2-1.3-1.4,3.4-4.4,5.7-5.1,9.6-.7,3.7-1.4,4.3,1.5,6.1,1.9,1.2,2.4,2.4,1.4,4.1-.9,1.5,1.1,1.5,1.1,2.8-1,1-2.1,2-3.2,3.2-.8.9-2.6,1.5-1.3,3.5.5.8-.7,1.4-1.5,1.8-3.6,1.9-5.8,4.7-6.9,8.7-.9,3.1-4.3,2.9-6.5,4.3-1.7,1-3.6,1.6-5.3,2.8-1.5,1.1-3.8.2-5.5,1.3l-.8.4c0-.5-.2-.9-.3-1.3-.7-3.1,3.9-2.9,4.4-5.4-3.9-4.5,1.9-6.3,2.5-9.7-.8-.7-.7-3.7-3.3-1.6l-.6,1.6c.7-1.3-.8-1.8-.9-2.7-3.9-1-1.6,3.8-4.3,4.3-1.2.4-1.4-1.4-2.6-1.7-.5.5-1,1.1-1.5,1.6l-.9,1.6c.2-3.2-1.8-5.5-3.3-8,.8-.9,1.5-1.6,2.3-2.2,1.6-1.2,1.3-4.6-.6-4.8-2.2-.3-2.6-1.8-3.4-3.2s-1.6-2.8-3.7-1.9c-.6.3-1.4.1-1.9-.8-1-1.8-2.2-3.7-2-5.6.2-1.7-.4-2.3-1.7-2.9-.2,2-2,2.2-3.1,2.5-1.9.6-2.2-2.3-4.1-2.2-1.1.3-.7,2.4-2.4,2.3-1.3-.4-1.5-1.8-2.6-2.6-.2,1.2-1-.3-1.5.3-.2.2-1-.3-1.2-.3-.4-1,.5-1.4.6-2.1.4-1.8-.6-3-1.9-4.1-.8-.7-1.9-.9-2.8-.6-1.6.6-4.4,7.1-4.1,9,.4,2.3-.6,3.7-2.8,3.3-1.8-.3-2.6,0-3.5,1.3-.4.6-.8,1.4-1.8,1.3-1.8.1-1.6-2-2.7-2.6-2,.5-2.7,3.7-5.3,2.3h-.6c.7,1.6.5,4.6,2.5,4.4,2-.1,2.8,1.4,4.4,1.5.6,0,1.2.6,1.5,1.2,0,1.3-1.2,1.5-1.5,2.4.9.7.4,2.6,2.1,3.2l-.9.3c-1.4,2.3,1.5,2.8,1.8,4.6-.3.8-1.2,1.3-2.1,1.3-2.8-.1-4.4,1.8-4.8,3.8-.8,4.1-3.7,6.8-5.6,10.1-1.2,2-1.4,3.3.2,4.7,1.6,1.5,1.7,2.9-.2,4.2,1.2,1,2.3,2,3.5,3-1.8,1.6-1.1,3.7-2.1,5.2,2.6,1.8,5.8,3,6.2,6.8.2,1.7,0,3.3.5,5,.5,1.9-1.6,3.3-2.9,4.6.3,1.2,1.4,1.7,2.2,2.5,1.6-1.8,3.3-1.5,5.3-.7,2.2.9,4.4,1.8,6.8,1.9,4.1.1,6.7,3.2,9.9,5,1.4-.2,2.1-2.1,3.7-1.6,0,1.6-.2,3.3,2,3.9-1,1.8-1.9,3.4-2.8,5,.8,1,1.8,1.5,2.9,2l-1.6-.3c-1.1,1.2-.9,2.3.3,3.1,2,1.2,4.3,3.5,5.9,3.4,2.6,0,4.3,1.5,6.5,2s4.1,1.7,5,4c.4,1.1.9,1.7,2.2,1.9,1.8.3,2.4,2.1,3.3,2.7,3.9.3,6.5-1.8,9.1-3.7,1.3-.9,3.7.7,4.4-1.9,0-1.2-1.8-2.3-.9-3.3,1.3-1.4,0-4.5,3.2-4.7,1.2.3,2.1,1.5,3.4,2.3.9-.8,1.8-1.5,3.1-2.6-.7-.4-1.3-.7-2.2-1.2,2.4-1.8,4.3-3.4,4-6.3,0-.9.9-1.2,1.5-1.5,3.6-2.1,6.2-1.6,7.5,2.5.8,2.3,2.1,2.6,3.6,3.4,1.2.7,2.7,1,3.6,2.4-.2,2.5-2.1,4.3-2.8,6.6-.8,2.7-.2,4.3,1.7,6,2.8,2.4,3.3,2.5,5.9.6.6.3.6.9.7,1.5,0,.3.8.4,1.5.6,2.2-3.3,6.4-3.9,10.6-5.3,2,2.6,4.8,4.5,8,5.6,2,.7,1.2,2.3.8,3.4-.3.9-1.5,1.5-2.5,2.3,1.3,1.7,2.6,2.8,4.8,1.1,1.2-.9,2.1-.3,2.8.9.4.7,0,1.9,1.6,2.1,1.5-1.5,3.3-1,4.9.5,1.5,1.4,3.1,1.3,4.3.2,1.8-1.7,3.8-1.3,5.3-.4,1.7,1,2.9,1.7,4.5,0,.5-.6,1.1.8,2,1.1.5-4.3,2.9-7.1,6.1-9.5-2-3.1-1.7-5.9.8-8.5.8-.8,1.3-1.7.5-3.1-.9-1.6,1.1-4.4,3-4.6,2.3-.3,5.1.2,3.5-3.8-.3-.8,3-3,3.9-2.4,2.4,1.6,4-.5,5.9-1,1.1-.3,9.2-3,9.9-2.7.9.3,1.6,1,2.3,1.8,2.6,3.1,4.4,3.1,7,0,.8-.9,1.8-1.6,2.5-2.4,2.2-2.5,3.4-2.8,5.5-.3,1.9,2.3,3.3,2.2,5.4.3,2.4-2.2,6.3-2.3,8.6-.3,1.3,1.1,2.4,1.7,3.8.8,1.1-.7,1.9-.1,2.5.4,1.1,1.1,1.9,2.5,2.9,3.8,1.8-1.5,3-2.3,4-3.3.7-.8,1.6-.8,2.2-.5,2.3,1,3.6-.3,5.4-1.5,3.1-2.2,5.6-5.3,9.9-5.4,1.7,0,1.7-2,2.8-2.8,2.1.4,4.3,2.1,6.2-.6.8-1.1,2,0,2.9.4,1.7-.7,2-2.7,3.7-3.3,1.6,1.2,3,.9,4.2-.9v-3.4c.3.4,0,1.2,0,1.8.2,1.5,1.2,2,2.4,1.2.9-.6,1.8-1.8,2.8-1.1,1.6,1,3.9.9,4.7,3,.8,2.1,2.9,1.5,3.3.9l-3.6.4c-.4.5-.7.9-1,1.5-1.3,2.6-3.1,4.6-6.5,4.4-2.2-.1-3.2,1.6-4.3,3.2.5,1.1,2,1.8,1.5,3.3-.7,2.2,0,3.7,1.8,5,1.7,1.2,2,2.7.3,4.3-.6.5-.2,1.2-.4,2.2,3.1.5,6.2,1.1,6.5,5.3.8-.4,1.2-.4,1.4-.7,2.9-2.6,2.8-2.5,5.3.3,1.7,1.9,1.7,4.5,3.4,6.3l-3.1,3.1c1.4,1.4,1.1,2.9-.2,4.2,1.2.7,2.1,1,2.7,1,4.4.1,5.6,1.2,6.6,5.6.5,2.2.8,4.5,2.7,6.2,2.9,2.6,7.3,2.1,10,4.9.1.2.7.1.9,0,2.1-1.2,3.4,0,4.3,1.6.6,1.1,1.6,1.5,2.7,2.4,3.3-3.7,7.3-.4,11-1,1.8-.3,2.4-.4,2.4-2.1v2.2c1.2,1.2,2.8,2,3.5,3.3,1.1-1,2-1.8,3.2-2.9,2,1.1,4,2.2,6.1,3.2,1.2.5,1.7,1.5,1.8,2.5.2,2.3,2.1,2.3,3.1,1.8,4.4-2.3,8.4,0,12.5.8,2.9.5,5.5.9,8.4,0,2.2-.7,4.5.7,6.8.9,3.5.3,5.6,3.6,8.7,5,1.3.6,2.1,1.2,3.5.3.7-.5,2.1-.3,3,0,4.1,1.2,6.9-1.3,10.3-3.3,3.3,3.5,7,5.9,11.7,1.9.8,1.1,1.6,2.2,2.4,3.2q3.5-1,5.5,1.3c2.3-1.4,4.5-1,6.8.5,2.1,1.3,4.5,2.1,7.1,1.9,2.7-.2,5.5.2,7.7,1.9,1.1.8,1.9.4,3.2,0,3.6-1,7.3-1.9,11.2-.8,3.6,1,5.9,3.6,8.5,5.7h.8c5.4-3.1,8.4-2.4,12.1,2.8,1,1.4,2,2.7,3.2,4.2,2.5-1.8,5.1-1.8,7.7-.2.7.5,1.3.2,1.5,0,2.4-2.4,4.4-1.3,6.6.3.5.4,1.2.6,1.9,1,2.2-2.6,5.5-2.2,8.4-3,1.3-.4,2.7-.6,2.7,2.1s4.8,3.1,6.6,1.2c.3-.3.6-.4.9-.6,2.8,2.1,3,5.6,4.6,8.4,3.1-1.6,3.8-4.6,2-7.5,1-2.8,3.9-3.8,5.9-3.5,4.7.6,5.5-3,7.1-5.5,2.2-3.5,2.5-3.8,6.9-2.4,1.5.5,2.8-.5,4-1.3,1.5-1,2.9-7.1,2.1-9.2,1.8-1.4,3.3-3.3,4.2-5.6,1.1-3.2,2.9-.3,4.2-.3,1.3-.2.7-1.3,1.1-1.9.7-1.2,2.2-1.6,3.4-1.5,1,0,2,1,1.9,2.4,0,1,.8.8,1.3,1.3,1.4-3.9,3.3-7.3,8.1-7.8,0,0,.6-.7,2.2,1v-.2Z"/>
        <g>
          <path class="cls-2" d="M583.7,376.8c-4.7.5-6.6,3.9-8.1,7.8-.4-.4-1.4-.3-1.3-1.3,0-1.4-.9-2.3-1.9-2.4-1.2,0-2.7.3-3.4,1.5-.3.6.2,1.6-1.1,1.9-1.4,0-3.1-2.9-4.2.3-.8,2.4-2.3,4.2-4.2,5.6.8,2.1-.6,8.2-2.1,9.2-1.2.8-2.5,1.7-4,1.3-4.5-1.4-4.8-1-6.9,2.4-1.6,2.5-2.4,6.2-7.1,5.5-2-.3-4.9.7-5.9,3.5,1.9,2.9,1.1,5.9-2,7.5-1.6-2.8-1.8-6.3-4.6-8.4-.3.2-.6.3-.9.6-1.9,1.8-6.7,1.1-6.6-1.2,0-2.7-1.4-2.5-2.7-2.1-2.8.9-6.2.5-8.4,3-.6-.3-1.3-.5-1.9-1-2.1-1.6-4.2-2.7-6.6-.3-.3.3-.8.6-1.5,0-2.5-1.7-5.1-1.6-7.7.2-1.1-1.5-2.2-2.9-3.2-4.2-3.8-5.2-6.7-5.9-12.1-2.8h-.8c-2.6-2.1-4.9-4.7-8.5-5.7-3.9-1.1-7.6-.2-11.2.8-1.2.3-2,.8-3.2,0-2.3-1.7-5-2-7.7-1.9-2.6.2-5-.6-7.1-1.9-2.3-1.4-4.4-1.9-6.8-.5-1.9-2.4-2-2.4-5.5-1.3-.8-1-1.6-2.1-2.4-3.2-4.7,4-8.5,1.6-11.7-1.9-3.4,1.9-6.2,4.4-10.3,3.3-1-.3-2.3-.4-3,0-1.4.9-2.2.3-3.5-.3-3.1-1.4-5.1-4.7-8.7-5-2.3-.2-4.6-1.7-6.8-.9-2.9.9-5.5.6-8.4,0-4.1-.8-8.1-3.1-12.5-.8-1.1.6-2.9.5-3.1-1.8,0-1.1-.6-2-1.8-2.5-2.1-1-4.1-2.1-6.1-3.2-1.1,1-2.1,1.9-3.2,2.9-.7-1.4-2.3-2.1-3.5-3.3l-.5-.7"/>
          <path class="cls-2" d="M550.4,82c-.3-1.7,1.5-1.8,1.9-3,2.7,2.2,6.6.8,8.7,4.1,1.7,2.6,6.8,1,7.9,5.3-.4,2.1-3-.7-3.3,1.1-.3,1.7-1.5,2.2-2.9,3.3,2.7,2.6,3.7,6.4,7.5,7.9,1.7.7,1.7,1.6.3,2.8-.4.3-.8.6-1.2.9-.3.2-.5.6-.7.9,1.5.5,2,.6,3.2.4,4.5,3.7,0,7.2-.3,11.2,4.3-.8,4.3,2.1,4.8,5.2.3,2.3,1.1,4.7-1.4,5.8-1.8.9-.4,2.5-1.7,3.7-2.4,2.3-5.2.9-7.6,1.6-1.5.4-3,.3-3.7,2-1.4,3.1-4.1,3.9-7.1,4.7-3.3.9-6.8,1.2-9.9,2.8-1.1.5-2.1.3-2.8-.4-1.9-1.7-4-3.3-5-5.9-1.1-2.6-3.1-4.1-5.9-4.3-1.4,0-2.1-1.3-3.7-1.3-2.7,1.4-4.2,3.5-3.8,6.9.2,2,0,4.1-1.1,5.9-.8,1.2,1.5,3.1-.7,4.2.8,1.2,2,2.1,2.3,3.8-3,.5-2,3.6-3.4,5.4-.6.8.3,1.9.8,2.8,1.6,2.4,4.6,3.8,4.8,7.1,0,.4,1.1,1.1,1.8,1.2,3.7.4,6.4,2.5,8.7,5,1.9,2.1,4,3.2,6.9,2.8,1.6-.2,2.8.4,3.4,1.9.6-1,1.8-.3,2.5-1"/>
          <path class="cls-2" d="M687.8,262.2c-.5.8-.7,1.8-1.9,2.2-2.4.8-2.4,2.5-1.2,4.3,2.6,3.9,3.2,8.3,3.7,12.8.3,2.6,2.1,4.8,2.2,7.5,0,3.3,1.2,6.5,2,9.7,1.1,3.8-1,7.4-1.5,11.1-.2,1.4-.4,2.6.4,3.7,1.9,2.9,1.9,6.7,4.7,9.1-3.1,3.5-5.4,7-7,11-.5,1.3-1.9,2.4-3,3.4-3.1,3-4.3,6.7-4.3,10.9"/>
          <path class="cls-2" d="M432.4,250.1c-.4,2.8-.3,5.7-2.8,7.8-.7.5-.4,1.4,0,2.2,1.8,3.3,2.4,7.1,3.8,10.6.9,2.4-.4,4.7.2,7.2.6,2.3,2.4,4.7,4.4,3.9,2.5-1,3.7.2,5,1.7.4.4.8.2,1.5.3,1-.6.9-2.4,2.5-2.9,2-.7,2.2,1.5,3.7,1.7,2.2-.7,3-4.5,6.1-3.7,1.1,1.6,0,2.9-.2,4.3,1.4.9,3.4.2,4.4,1.8,1.1,1.7-.4,2.6-1.4,3.6.4,1.8,1.9,2.4,2.9,3.2,1,.9,2.8,1.1,1.9,3.2-.1.3.6,1.2,1.2,1.5,2.5,1.1,4.1,3.2,6.5,4.4.8.4,2,.2,2,1.8s-.8,2-1.7,2.1c-.9.1-2.3.8-2.8-.8-.2-.5-.4-1-.9-2-1.5,2.6-3.4,3.2-4.8,4.5-1.6,1.5-1.7,3-.2,4.4,1.9,1.8,1.8,3.1,0,5.1-1.7,1.9-2.2,4.6-3.1,7-1.1,3-2.5,6.4-5.7,8.2-.8.4-1.4,1.1-2.2,1.7-.5-.6-1.7-.5-1-2,.8-1.9-2.4-6-3.9-5.1-1.7,1.1-2.6,0-3.1-.8-.9-1.5-2.5-2.9-1.9-4.9.2-.6.6-1.2.5-2.1-1.6-.5-3.2-1-4.7.5-.7-.8-1.4-1.6-2.2-2.5-1-1.1-2.2-2-3.4-.6-1.4,1.6-2.8.6-4.1.2-2.1-.7-4-1.9-6.2-2.5-3.6-1-7.1-1.5-10.5.1-.5-.4-.7-.8-.8-1.3-.2-2.4-1.5-2.8-3.7-2.2-2,.5-3.8,2.5-6.3.5-.7-.6-2.7.3-3.9.6-1.2.4-2.2,1.8-1,3.6,1.5,2.4,1,3.1-1.8,3.1s-5.4.9-8.1,1.2c-.6,0-1.1.2-1.2.7-1.1,3.1-2.8,1.3-4.4.6-1.5.2-.9,1.9-2,2.6-1.8-1-4.2-1-5.2-3.8-.9-2.4-2.6-1.4-4,.3-1.5-1.5-3.3-2.3-3.8-4.6-.6-2.4-5-3.8-7.3-2.5-1.6.9-2.7.5-3.7-.7-1.4-1.6-2.7-2.1-5-1.5-1.5.4-4.4.4-5.5-2-1.1-2.3-4-.9-5.4-2.7-.2-.2-2.1.3-1.1,1.8,1,1.4-.7,1.5-1,2.2"/>
          <path class="cls-2" d="M455.1,55c-.7.7-1.3,1.4-2,2.1,1.2,1,2.2,2,2.6,3.2,0,1.2-1.7,1-1.6,1.9,0,1.5,1.7,1.8,1.9,3,.2,1.3-1.6,1.3-1.2,2.9,1.6,1.5,1.8,3.8-.1,5.8-.7.7-1.3,1.1-1.2,2.2.3,3.2-.1,3.7-4,5.3-1.1.4-1.5,1.6-1.8,2.5-1,3.2-.9,3.2-3.5,5.2-.5-3-4.3-2.1-5.2-5.5-.6-2.4-5.3-.7-6.3-3.8-1.5,0-1.3,1.7-2.7,1.9-2.4-1.4-3.6-4.1-6.1-6.3-1.6,3.8-5.1,5.1-8.3,6.8,2.4,4.9,3.2,9.6-.3,14.1-1,1.3-.6,2.2.3,3.1,1.3,1.3,1.3,2.4,0,3.8-1.1,1.1-1.4,2.6-1.5,4-.3,2.8-1.5,4.8-4.1,5.9-2.9,1.2-3.6,4.7-6.5,6-1.6.7-2.8,2.2-4.4,3-1.5.8-3,1.8-5,1-2.8-1.2-5.3-.4-7.8,1.2-1,.7-2.1,1.3-3.4.9-2.4-.8-4.3.3-6.2,1.6-1,.7-2,1.5-3.4,1.6-.7,0-1.6.6-1.5,1.5,0,2-1.6,2.8-2.5,4.1-2.2,3.1-5.6,2.1-8.4,2.7-1.8.4-3.2,1-4.1,2.8-1.2,2.6-3,4.8-5.6,6.2-1.7.9-1.5,2.8-2.4,4.1-1,.4-1.2-1.3-2.2-.9-.7.9-1.4,1.9-2.1,2.9,0,.1.3.3.3.6.2,6.8,6.2,9.1,10.1,12.9,1.2,1.2,1.2,2.8,2.4,3.8"/>
          <path class="cls-2" d="M327,224.9c1.3-2.5,1.9-5.5,4.4-7.1,1.8-.3,2.1,1.5,3.3,1.8,1.3-.7,1.2-2.1,2-3.2,3.6,1.6,7.5,2.4,11.2,3.3-.1.2.9.5.3,1.2-1.7,2.2-1.3,3.7,1.2,4.6,1.6.5,2.6,1.2,2.8,2.8-5.8,3.8-4.5,7.2,1,10.6.7-.4,1.4-.9,2.5-1.6-.5,3.4,2.9,3.7,3.9,5.7,1.2,2.6,4,2.7,5.6,4.4,1.9,2,5.3-.2,6.4,3,1.3-.7,1.2-2.2,2.4-2.8,2.5-1.2,2.8-2.9,1.3-5.3-.9-1.5-1.2-3.4.8-4.7.4-.2.4-1,.6-1.5-.6-.6-1.3-1.1-1.9-1.7,0-1.2.5-1.8,1.6-1.7,1.3,0,2-.5,1.9-1.9-.2-1.9.1-3.5,1.9-4.7,1.1-.7.7-1.9.6-2.8-.7-5-3.5-8.8-7.3-11.9-1.9.8-3.4,2-4.8,3.2-1.4-.7-3-.8-4.3-1.4-1.3-.6-2.8-2-2.9-3.9,1.3-1.9,5.7-2,3.3-6.1,2.9-2.8,4.1-6.9,6.9-9.8.6-.6.5-1.4.3-1.9-2.1-4.9-5.3-9.2-6.8-14.3-1.9,0-2.5-2.2-4.3-2.5-3.1-.5-3.6-1.5-3.4-5.2.9-1.1,1.4.8,2.2.3,1-.7,1.4-1.8,1.9-2.8,1.8-3.8,3.3-4.3,7.2-2.2,1.5-.5,2.5-2.2,4.4-1.9,1.1.2,1.9.1,2.9,1.2,2.5,3,5.2,6,9.9,4.5.6-.2,1.4.7,1.2,1.5-.3.8-2,1.3-.6,2.5,1,.8,2.5.7,3.4.2,2.6-1.3,5.1-2.8,8.1-3.5,1.1-.3,1.9-2.2,3.2-3.8,1.2,4.9,5.9,4.7,9.6,6.8-2.8,1.3-1.1,3.9-2.4,5.6-2.1-.3-2.7-2.5-4.4-3.1-.9-.3-1.8-1.3-2.8-.3-.9.8-1.6,1.6-1,3.1.5,1.4.3,3,.2,4.6-.1,2.6-1.9,5.6,1.1,7.8.2.2.2,1.1,0,1.5-.5,1.1-1.2,2.4-.2,3.4,1.1,1.2,2.6,2,4.3,2.2.9,0,1.8.1,2.5.7,2.8,2.3,5.7,2.3,8.7.6,2-1.2,3.7-.9,4.7,1.5l3.4,1.6c-1.9,0-3.8.4-5.5-.7-3.2,1.3-2.4,4-2.3,6.3.1,2.4,2.6,1.9,4,2.4,1.2.4,2.5,1.2,3.7,1.3,2.5.1,3,1.9,3.3,3.5.5,1.9-1.3,3.6-2.5,3.9-4.2.9-2.5,5-4.6,6.7,1.5,1,3.5.1,4.1,2.4-1.6,1-1.9,2.4-.8,3.5-.7,2.3-2.7,3-3.7,4.5.7,1.1,1,2,.2,3.3-.5.9-.4,2.4.4,3.7,1.8,2.8,4.1,4.9,7.2,5.8,2.4.8,4.9,1.6,7.5,1.8,3.7.3,7.4,2.2,11.7.7-1.6-1-2.4-2.3-.8-3.1,2.9-1.5,2.9-4.5,3.6-6.9,1-3.3-2-7.1-5.5-7.4-2.3-.2-3-1.1-2.1-3.1.4-.8.1-1.5.3-2.2.5-2.6.2-5.7,2-7.7s3.3-4.3,5-6.4c1.7-2.1,3.7-2.9,5.7-2.2,1.5.5,2.2.2,3.2-.5,3-2.2,3.4-2.2,5.9.6.4.4.7,1.1,1.6,1.1,1.1-.4,1.9-2.3,3.4-1.1,2.7,2.3,6.5,2.4,9.1,5.1,1.5,1.6,1.8,2.6,1.2,4.5-.8,2.4-.7,4.7,1.3,5.9,6.3-1.3,10.9-5.5,17.1-6.5-.1,3,.7,5.3,2.8,6.4,1.6.8,4.3,1.6,5.4.9,2.7-1.7,6.3-2.6,8-5.2,1.7-2.5,3.2-2.5,5.4-1.3,2.9-4.5,3.9-5,7.3-3.5,1.6-1.4,3.6-2.4,2.3-5.4-.5-1.1,1.2-2.2,2.6-3.6.5.9,1,1.6,1.4,2.3q3.1-2.2,6.8-1.8c.6,0,1.8.3,1.8-.3-.3-2.3,2.1-2.1,3-3.4,2.1-2.8,3.3-2.6,5.8,0"/>
          <path class="cls-2" d="M690.9,241.4v.6c-1.3,1.6-3.4,2.5-3.7,5.4-1.6-2.2-2.8-3.8-4-5.4-3,.8-6,.2-8.7-.7-3.3-1-3.6-4.5-4.6-7.3-1.4.4-2.4.7-3.5,1-1.6-1.9-1.3-4.6,1.3-8-3.4-.1-6.2-1.1-7.8-4.1-1.5.2-2.8.4-3.6.9-1.7.1-.8-1.9-2.2-1.9s-1.4-1.1-1.2-1.5c1.6-3.3-2-5.7-1.1-8.6-2.2-.4-2.3,1.8-3.8,2.3-.9-2.9-4.3-2.9-5.8-5.4-.9-1.5-2.9-1.8-4.9-1.6-2.2.2-4.5.4-5-2.8-.2-1-.5-1.7-2.2-1.4-3,.6-3.4.1-4.9-2.7,0-.2-.2-.5-.3-.6-.2-.2-.4-.2-.7-.4-.8.7-1.6,1.3-2.4,2-.4-.5-.9-.8-1-1.6-.4-4.2-1.2-4.4-5.5-5.2-2-.4-3.2.3-4.7.8-.8.3-1.3.8-1.6,1.6-.7,2.1-2.1,2.8-4.4,1.9-2.3-.9-3.7-.3-4.7,1.9-.3.7-.3,1.2,0,1.9,1.1,3-.3,4.5-3.4,4-.7-.1-1.4-.5-2.2-.6-.5,0-1.2-.5-1.5.3-1.9,4-5.4,2.6-8.4,2.1-1.2-.2-2.9-1.8-3.6-1.1-2.5,2.3-6.4.8-8.6,4.2-2.6,3.9-4.4,3.6-7-.6-.7-1.1-1.4-1.3-2.5-1.2-.4,0-.9-.2-1.2.3-2.3-3.3-4.4,0-6.5.3-1.7-.7-2.6-2.1-4-3.3.6-.8,1.1-1.3,1.6-1.9-3.5-5.2-3.5-6.1-.4-9.1"/>
          <path class="cls-2" d="M251.5,232.4c.3-2.8,2.9-2.8,4.7-3.7,1.9-1,3.7-2.1,5.9-.7.9.6,2.3.4,3.5.6.6-.5.6-1.8,1.7-2.1,1.6,0,1.6,2.1,3.4,1.9,1.7-1.8,3.6-1.7,6.2.6,1.3.5,1.5-1.6,2.8-1.3.5.6,1,1.3,1.6,2,.3-.2.6-.5.9-.7,1.4-.9,2.7-2.1,4.7-1.9,1.9.2,2.1-.8,1.6-2.5-1-3.3-2.3-6.5-3.8-9.8,3.1-1.2,5.9-2.6,7.9-5.4.4-.6,1.3-1.5,2.4-.7,1.3,1,.1,1.4-.3,2.2-2.2,4-2.1,5.1,0,7.5,1.4-2,3.7-2.8,5.9-3.4,2.4-.7,4.1,1.2,5.9,2.4,1.4-.9,2.7-1.7,4.3-2.4,1.6-.7,2.8.1,2.8.8,0,4.8,4.4,6.9,5.7,10.5,1.6.3,2.3-.4,3.1-1.2,1.9-1.8,4.5-1.1,4.9,1.6.3,2.1,1.2,2.8,3.2,2.8s2.8.4,4,.9c2.7,1.2,2.9,2.4.9,4.6-.6.7-1.6,1.1-2.7,2,4.6,2.9,4.1,8,7.3,11-1.1,2.3-2.5,3.3-5.1,1.9-.7,1.2-2.1,1.9-.7,3.9.8,1.1,0,2.5-1.2,3.4-2,1.4-3.7,3-4.6,5.6-.8-.9-1.4-1.5-2-2.2-2.9,1.9-7.6.8-8.9,5.5-.1.8.6,1.4,1.2,2,1,1.1,2.3,2,.9,3.8-1,1.3-1.8,2.4-3.8,1.3-2.1-1.2-4.3.7-5.7,1.4-3.2,1.6-5.2-.5-7.6-1.2-.9-.3-1.6-1-2.4-1.6-1.3.6-2,1.6-2.7,2.8-1,1.6-2.6,3.8-4.9,1-.1-.2-.7-.2-.9,0-2.3,1.9-5.9.8-7.8,3.5-1-.8-2-1.7-2.9-2.4-3.4,2.9-3.7,5.7-1,8.4-.9,2.1-1.7,4.3-2.7,6.4-.6,1.2-.6,2.5-.2,3.4,1.7,3.9,2.1,8.4,4.9,11.9.3.4,0,1.2,0,1.8.2,1.5,1.2,2,2.4,1.2.9-.6,1.8-1.8,2.8-1.1,1.6,1,3.9.9,4.7,3,.8,2.1,2.9,1.5,3.3.9,1.2-2.4,4.2-2.2,5.4-4.3.4-.7,1.2-.7,1.9-.9,1.5-.6,4.2-.2,2.6-3.5-.5-1.1,4.6-4.1,5.7-3.3,1.2.9,1.7,2,3,0,.4-.6,1.1.9,1.8,1.1,3.2-2.8,4-2.6,9.3,2.6,1-.2,1.4-2.1,3.1-.7,3.3,2.5,7,4.6,10.5,6.9,1.6,1.1,2.5,2.9,3,4.7.9,2.7,2,4.3,5.1,2.8.5-.3.9.2,1.2.6.3,1-.9,1-1.2,1.5-2.7,3.7-3.5,4.8-.8,8.8,1.8,2.6,3.9,5.1,5.4,8,3.1-.9,3.1-.4,3.9,3.1.7,2.8.5,6,4.3,8.1,3.1,1.7,5.3,5.4,8.9,7.2,1,.5,1,1.6.3,2.4-.9,1.2-2,2.3-3,3.5-3.1-2.6-3.9-2.6-6.9,0-1.8,1.5-3.3,2.7-6,1.1-1.3-.8-3.5-.2-5.2.4-1.3.4-2.4,1.6-4,1.4-.5,0-2,.9-1.3,2.4.2.4.3,1.2-.3,1.5-2.4,1.5-2.1,3.9-2.2,6.2,0,1.6-.7,1.8-2.4,2.1-3.8.6-7.8-2.7-11,1-1.1-.9-2.1-1.3-2.7-2.4-.9-1.7-2.2-2.8-4.3-1.6-.2.1-.8.2-.9,0-2.7-2.9-7.1-2.3-10-4.9-1.9-1.7-2.3-4-2.7-6.2-1-4.4-2.1-5.4-6.6-5.6-.5,0-1.4-.3-2.7-1,1.3-1.3,1.6-2.8.2-4.2l3.1-3.1c-1.7-1.8-1.6-4.4-3.4-6.3-2.6-2.8-2.4-2.9-5.3-.3-.2.2-.6.3-1.4.7-.2-4.1-3.3-4.8-6.5-5.3.2-1-.2-1.7.4-2.2,1.7-1.6,1.3-3.2-.3-4.3-1.9-1.3-2.6-2.8-1.8-5,.5-1.6-1-2.3-1.5-3.3,1.1-1.5,2.1-3.3,4.3-3.2,3.3.2,5.2-1.8,6.5-4.4.3-.6.6-1,1-1.5"/>
          <path class="cls-2" d="M759.5,59c1.4-.6,2.5-.4,3.1,1,1.6-.2,2-1.5,3.1-1.9,1.6.9,3.2.6,5,0,3-.9,5.1,1.4,4.3,4.6-.2.7-.3,1.2,0,1.9q1.6,3.1-.3,6.8c.8,1.3,2.6.7,3.6,2.1-2.4,1.7-.2,4.6-1.7,6.9,1.9,1.8,3.3,4.1,1.5,6.9-1,1.4-2.6,2.4-3.6,3.8-2.1,2.7-4.1,5.5-5.9,8.4-.7,1.1,0,2.4.6,3.4,1.3,2.3,1.1,4.2-.6,6.3-1.5,1.8-1.2,3.7.9,4.9,2.2,1.3,3.6,3.5,6.4,4.4-1.1,1.4-2.6,1.5-3,2.9,1.8,2.4,3.7,4.8,6.9,5.6-.9,4.3,1.7,7.8,2.1,11.4.6,5.9,6.1,6.1,8.4,9.9-1.3.8-1.5,2.3-1.9,4-1.6-1.4-2.8-3.2-4.9-4.3-.7.9-2.1.8-3.6,1.7,2.2,2.2,5.6,2.1,7.3,4.6-2.4,1.6-1.8,4.8-3.7,6.8l-.3,1.9c-.5-2.3-1.2-4.6-4-5-2.1-.3-2.4-1.9-2.9-3.4-1.7-.2-3,1.7-4.3.1-1.8,1.1-1.6,3.1-2.8,4.2-1.5,1.5-2.9,2.9-5.3,3.2-2.4.3-3.7,3-6.5,3.2-1.9.1-3.9,1.6-3.7,4.2,0,.8-.5,1.7-.7,1.8-4.6,1-5.8,5.4-8.7,8.2-.9.9-1.9,1.9-2.8,2.8-2.1-2.2-3.1-5-4.7-7.5l-.3-.6c-1.5,1.1-3.3.5-5.1,1.3-2.5,1.2-4.5,2.6-5.4,4.9-1.4,3.7-4.3,5.1-7.7,6.2.9,2,2.9,3,4.2,4.8-2.1,2.3-3.6,5.2-6.4,7.1-1.8-1.3-3-4.3-6.7-2,3.3,1.8,3.2,4.9,3,8.3-2,2.5-2.2,6.6,0,9.5.6.7,1.3,1.4,2.5,1.3,2.4-.4,3.3,1,3.4,3.1,0,2.6,2.4,5.5-1.2,7.4-.3.1,0,.9-1,.4-2.2-1.2-2.1.7-1.8,1.8.4,1.6,0,2.8-.7,4.1-1.1,2,.2,3.8,1.1,5.2.7,1,1.5,2,1.6,3.8-1,2.5-4.6,4.4-4.6,8.4s-.9,1.6-1.8,1.8c-2.5.6-4.1,2.5-5.9,4.1-1.2,1-2.2,1.2-3.5.6-1.9-.9-3,.4-3.6,1.6-.6,1.1-1.3,1.8-2.3,1.8-2.5,0-4.1,1.2-4.8,3.6l-1.1-1.1-.6-.6c0-.7.2-1.4.3-2.2"/>
          <path class="cls-2" d="M17.9,246c.7,1.6.5,4.6,2.5,4.4,2-.1,2.8,1.4,4.4,1.5.6,0,1.2.6,1.5,1.2,0,1.3-1.2,1.5-1.5,2.4.9.7.4,2.6,2.1,3.2l-.9.3c-1.4,2.3,1.5,2.8,1.8,4.6-.3.8-1.2,1.3-2.1,1.3-2.8-.1-4.4,1.8-4.8,3.8-.8,4.1-3.7,6.8-5.6,10.1-1.2,2-1.4,3.3.2,4.7,1.6,1.5,1.7,2.9-.2,4.2,1.2,1,2.3,2,3.5,3-1.8,1.6-1.1,3.7-2.1,5.2,2.6,1.8,5.8,3,6.2,6.8.2,1.7,0,3.3.5,5,.5,1.9-1.6,3.3-2.9,4.6.3,1.2,1.4,1.7,2.2,2.5,1.6-1.8,3.3-1.5,5.3-.7,2.2.9,4.4,1.8,6.8,1.9,4.1.1,6.7,3.2,9.9,5,1.4-.2,2.1-2.1,3.7-1.6,0,1.6-.2,3.3,2,3.9-1,1.8-1.9,3.4-2.8,5,.8,1,1.8,1.5,2.9,2l-1.6-.3c-1.1,1.2-.9,2.3.3,3.1,2,1.2,4.3,3.5,5.9,3.4,2.6,0,4.3,1.5,6.5,2s4.1,1.7,5,4c.4,1.1.9,1.7,2.2,1.9,1.8.3,2.4,2.1,3.3,2.7,3.9.3,6.5-1.8,9.1-3.7,1.3-.9,3.7.7,4.4-1.9,0-1.2-1.8-2.3-.9-3.3,1.3-1.4,0-4.5,3.2-4.7,1.2.3,2.1,1.5,3.4,2.3.9-.8,1.8-1.5,3.1-2.6-.7-.4-1.3-.7-2.2-1.2,2.4-1.8,4.3-3.4,4-6.3,0-.9.9-1.2,1.5-1.5,3.6-2.1,6.2-1.6,7.5,2.5.8,2.3,2.1,2.6,3.6,3.4,1.2.7,2.7,1,3.6,2.4-.2,2.5-2.1,4.3-2.8,6.6-.8,2.7-.2,4.3,1.7,6,2.8,2.4,3.3,2.5,5.9.6.6.3.6.9.7,1.5,0,.3.8.4,1.5.6,2.2-3.3,6.4-3.9,10.6-5.3,2,2.6,4.8,4.5,8,5.6,2,.7,1.2,2.3.8,3.4-.3.9-1.5,1.5-2.5,2.3,1.3,1.7,2.6,2.8,4.8,1.1,1.2-.9,2.1-.3,2.8.9.4.7,0,1.9,1.6,2.1,1.5-1.5,3.3-1,4.9.5,1.5,1.4,3.1,1.3,4.3.2,1.8-1.7,3.8-1.3,5.3-.4,1.7,1,2.9,1.7,4.5,0,.5-.6,1.1.8,2,1.1.5-4.3,2.9-7.1,6.1-9.5-2-3.1-1.7-5.9.8-8.5.8-.8,1.3-1.7.5-3.1-.9-1.6,1.1-4.4,3-4.6,2.3-.3,5.1.2,3.5-3.8-.3-.8,3-3,3.9-2.4,2.4,1.6,4-.5,5.9-1,1.1-.3,9.2-3,9.9-2.7.9.3,1.6,1,2.3,1.8,2.6,3.1,4.4,3.1,7,0,.8-.9,1.8-1.6,2.5-2.4,2.2-2.5,3.4-2.8,5.5-.3,1.9,2.3,3.3,2.2,5.4.3,2.4-2.2,6.3-2.3,8.6-.3,1.3,1.1,2.4,1.7,3.8.8,1.1-.7,1.9-.1,2.5.4,1.1,1.1,1.9,2.5,2.9,3.8,1.8-1.5,3-2.3,4-3.3.7-.8,1.6-.8,2.2-.5,2.3,1,3.6-.3,5.4-1.5,3.1-2.2,5.6-5.3,9.9-5.4,1.7,0,1.7-2,2.8-2.8,2.1.4,4.3,2.1,6.2-.6.8-1.1,2,0,2.9.4,1.7-.7,2-2.7,3.7-3.3,1.6,1.2,3,.9,4.2-.9"/>
          <path class="cls-2" d="M789.7,148.6l.6.5c1.3,1.5,1.2,4.1,4.1,4.4-3.8,3.5-.8,7.6-2.4,11,1.9,1,3,.1,4.2-.4.2.2.4.4.6.6.8,1,2.5.7,2.8,2.5.4,2.2-1.6,1.9-2.5,2.8-1.2,1.1-2.5,2.2-3.1,3.5.3,1,1.7.9,1.8,2-1.9,2.6-2,4.6-.5,6-.2.8-1.8,1.1-1.3,2.1,1.3,2.8-.9,3.3-2.5,4.4-1.7,1.3-4,.7-5.6,1.8,0,1.8,1.4,1.9,2.2,2.5,1.1.8,3.4.7,1.3,2.9-.5.5.5,1,.9,1.5.6.7,1.4,1.4,1.2,2.4-.7.5-1.6.6-2,1.8,1.7,1.3,1.3,3.2,1.3,5.1s-.5,5.1,2.1,7.4c-7.6,1.4-14.6,2.7-21.5,3.9-1-1.6-.9-3.2-2.1-4.2-2.1,1-2.5,3.4-4.1,5-1.1-2.3-2-4.4-4.2-5.4-2.7,1.8-3,2.7-4.8-2.4.3-.8,1.7-.5,1.9-1.5-1.3-1.9-1.1-6.6.6-8.4,3.5-3.7,5.6-8.3,8.3-12.5,2.1-3.3,1.7-6.7-.6-9.3-1.7.1-2.9,1.4-4.7,1.6-3.1.4-7.2,6.1-6.5,9.2.8,3.4-.2,5.8-2.9,7.8h-1.2c.7.9,2.3,2.2,2,2.7-1.1,2.6,0,5.7-1.8,8.1-.9,1.3-2.1,1.5-3.4.3-3.6-3.2-8.3-2.8-12.1.9-.2,1.3,1.6,1.3,1.4,2.6-1.7,3.2-7.8.8-7.8,6.5-3.7-2.4-3.7,1.5-5.6,2.5,3.4.6,5.9,3.5,9.5,2.9,1-.2,1.3.5,1.8.8,1.1.5,2.1,1.4,3.1,2.1,2.1,1.5,4.2,2.1,6.2,0,.4-.4.8-.2,1.5-.3,1.9,2.6,4.1,4.9,3.6,8.8-.2,1.4,1.3,2.5,2.4,3.4,1.4,1,1.7,2.7,1.1,3.7-.8,1.3-1.4,3.4-3.9,3-1.5-.2-2,1-1.2,2.4.5.8,1.1,1.6,1.6,2.4-2.5,4.6-6.5,7.3-10.6,10-.5.3-.9.6-1.9.2-2.3-1-4.5-.4-4.7,3.2-2-2-2.9-5.6-6.4-3.2,1.5,1.7.8,4.2,1.9,6.1-.4,1.3-2,1.5-2.7,3.1,4.6,1.4,4.2,5.9,5.8,9.3.6,1.3-2.1,4.8-3.7,4.9-.7,0-1.4-.2-2,1,1.6,1.1.2,2.5.2,4s-2,.8-2.6,2.3c.4,1.1.8,2.5,2.5,3,1.6.4,2.3,1.8,3.3,3.8-.7.3-1.7.8-2.6,1.3.5,2,2.9,2.2,7.2.6.2.3.7.9.8,1.5s1,.8.5,1.9c-2.3.5-3.1,3.5-5.7,4.4-1.3.5.3,4.1,2.1,4.9.9.4,1.8.5,2.6,1.3-.7,2-2.5,1.8-4.1,2.2-1.4.3-3.4.5-3.5,3.1,2.8-1.1,4.5.9,6.6,2,.8.4,1.1.9.9,1.6-.2.6-.8,1.1-1.5.9-1.5-.4-3.3,1.3-4.7-.6-.3-.4-1.1,0-1.5.6l-.3.9c-1.4-1.1-2.4-3.3-4.7-1.2-.5-.6-1.4-.2-1.9-.9-.7-1-1.6-.9-2.5,0-1.3,1.2-3.6-1.1-4.5,1.6-.5-1.2-.9-2-1.3-3-.4.2-.9.3-1,.5-.4,1.8-2.4,3.4-1,5.6.5.8-.7,1.6-1.2,1.8-6.3,2-9.1,7.7-13,12.2-1.2,1.4-2.4,2.4-4.1,3.1-1.3.6-3,.8-3.5,2.7-.4,1.3-2.7,1.9-3,1.7-2.4-1.2-3.8,1-5.8,1.1.2,1.4,1.1,1.9,1.9,2.6-.5,2.2-3.4,4.4-.6,7,0,0,0,.4,0,.6-2.1,4.6,1.4,7.1,3.8,9.9,1.7,2,1.5,3.9,0,6.1-2-1-3-2.9-4.7-4.2-1.6.9-2.9.5-4.3-.6-2-1.5-3.4-3.6-6.2-4.2-5.2-1.1-8.8,1.6-12.6,4.8-1.5-3-3.4-2.7-5.3-.8-3-2.9-2.9-2.9-5.8-.2-.9.9-2.1,1.7-3.2,2.6-2.1-2.2-4.1-1.1-6.1.2-1.9,1.2-1,2.6,0,4-1.3,2.4-3.5,3.8-5.5,5.3-1.2.9-1.9.3-1.8-1.2l-.6,1.6c-1.8,1-1.9-.6-2.1-1.6-.2-1,.2-2.1-.5-3.1-2.2,1.2-3.3-.1-3.8-2.7-3.2,2.3-6.4,2.3-9.8,1.2-1.4-.4-3.1-.4-4.7,1-1.3,1.2-3.4,1.4-5.5.5-1.7-.8-3.7-.8-5.4-2.1-.5-.4-2.5-2-3.6.2-.2.4-.9,1-1.2.6-2.1-2.5-2.9.9-4.7.7-1.6-1.6-3.6-3.3-6.2-3.5,1.4-4.4,2.3-8.2,1.3-12.4-.7-2.8-1.3-4.8-4.7-5.1-1.2,0-2.2-1.5-1.2-3,1.4-2.2,1.9-5,4.8-6.1-1.6-2.2-2.7-4.1-.9-6.7,1.2-1.8,1.1-3.9-.5-5.9-1.9-2.4-3.3-5-4.1-8-.3-1.1-.8-2.4-1.9-2.4-5.2-.2-7.4-4.6-10.8-7.3-1-.8-1.9-1.1-2.8-.8-5.6,1.4-10.9,4-16.8,4.4-2,.1-4.2.8-4.9,3.3-2.1-.5-3.2-2.8-5.7-2.6-.6,0-1.8-.4-2.1-.1-2.8,2.2-3-.1-3.6-2.3-2.5,1.1-3.9,3.2-5.4,5.5-.8.4-1.5-1-2.7-.7,0,0-.3.1-.5.3-.7.8-1.5,1.6-2.2,2.5-.5.6-1.3.4-1.9.3-.8-.2-.6-1.1-.6-1.8,0-1.5,1.1-2.6,1.3-3.9-.2-1.6-2.4-.8-2.5-2.5-1.2.3-2.3,2.5-3.7.4-.5-.7-1.6-.5-2.1-.3-2.2,1-4,.3-6-.6-1.9-.9-2-.7-3.1-4.1-.2-.6-.8-1-1.2-1.6-2.1-.2-3.2,1.4-4.5,2.6-2.9-2-3.1-1.9-4.2.8-.3.8-.8,1.2-1.6,1.6-1.9.9-3.1,2.4-4.4,4-1,1.3-1.6,2.7-3.8,1.4-1.1-.7-1.6.9-1.5,2.1.2,2.3.2,3.5-3.1,4-3.1.5-5.9,3.4-8.7,5.3-.6.4-1,.9-1.6,1.2-3.9,2.1-4.6,1.8-8.4-2.8"/>
          <path class="cls-2" d="M623.8,22c-3.4-.4-5.6-2.9-8.2-4.9-1.2-.9-3.4-2.8-5.2-.1-.4.5-2.1,0-3.8-1.3,0,2.3-2,3.7-2.8,5.9-2.2-2-4.3-2.2-6.1.4-.8,1.1-1.8.7-3.2.3,1.7-2.6-1.2-4.2-1.2-6.5,0-3.8-4.2-.2-4.7-3-2.2,2.4-3.2,2.1-4.7-.3-.8-1.2-3-1.5-4.5-1.2-.9.2-3.6.4-2.3,3,0,.1-.5.7-.9.9-2.4,1.6-1.4,4.3-1.3,6.2,0,1.3,0,2.5-.3,3.7,2.7,3,2.9,3.9.2,8-1.2,1.9-.9,3,.7,4-1.9,2.5-2.1,5.6-3.1,8.4,1,1.3,2.6,1.5,4,1.9-.6,3.6-2.4,4.8-5.6,3.1-3.4-1.9-7.2-2.2-10.6-3.6-1.1-.5-3.3.6-2.9,1.1,1.6,2.3-2.7,4.2.3,6.4-2.7,1.7-3.6,4.8-6.9,5.7-2.3.7-3.5,6.2-2.5,8.6,0,.3.4.7.3.9-1.5,2.5.2,6-2.5,8.1"/>
          <path class="cls-2" d="M76.9,346.4c-.4-.9-1.1-1.7-.9-2.8,0-.9-.2-2-.9-2.1-3.3-.6-2.7-3.1-2.8-5.3,0-.7-.6-1.5-.8-2.1,1.1-1,2.3-1.9,3.3-2.9s1.4-1.4.9-2.1c-1.9-2.7.9-3.3,1.9-4.4-.7-1.6-1.8-2.5-2.8-3.4-1.4-1.4-1.4-2.4.6-3.1,1.7-.6,2.1-2.2.9-3.3-3.2-3.2-.9-5.9.8-8.4,1.1-1.6,3.2-2.5,4.7-4,2.8-2.8,2.7-2.3.8-5.3-.9-1.5-1.7-2.5-.4-4.4,1.5-2.1.9-4.6-1.1-6.5l.9-.3c.3-.4.6-.8,1.2-1.5-3.2.2-3.4-2.7-3.8-4.4-.7-3.1,3.9-2.9,4.4-5.4-3.9-4.5,1.9-6.3,2.5-9.7-.8-.7-.7-3.7-3.3-1.6l-.6,1.6c.7-1.3-.8-1.8-.9-2.7-3.9-1-1.6,3.8-4.3,4.3-1.2.4-1.4-1.4-2.6-1.7-.5.5-1,1.1-1.5,1.6l-.9,1.6c.2-3.2-1.8-5.5-3.3-8,.8-.9,1.5-1.6,2.3-2.2,1.6-1.2,1.3-4.6-.6-4.8-2.2-.3-2.6-1.8-3.4-3.2s-1.6-2.8-3.7-1.9c-.6.3-1.4.1-1.9-.8-1-1.8-2.2-3.7-2-5.6.2-1.7-.4-2.3-1.7-2.9-.2,2-2,2.2-3.1,2.5-1.9.6-2.2-2.3-4.1-2.2-1.1.3-.7,2.4-2.4,2.3-1.3-.4-1.5-1.8-2.6-2.6-.2,1.2-1-.3-1.5.3-.2.2-1-.3-1.2-.3-.4-1,.5-1.4.6-2.1.4-1.8-.6-3-1.9-4.1-.8-.7-1.9-.9-2.8-.6-1.6.6-4.4,7.1-4.1,9,.4,2.3-.6,3.7-2.8,3.3-1.8-.3-2.6,0-3.5,1.3-.4.6-.8,1.4-1.8,1.3-1.8.1-1.6-2-2.7-2.6-2,.5-2.7,3.7-5.3,2.3"/>
          <path class="cls-2" d="M108.3,237.3c-1-1.1-2.2-2-2.8-3.4,2.2-3.1,3.3-3.3,6.2-1.3-1.4,3.4-4.4,5.7-5.1,9.6-.7,3.7-1.4,4.3,1.5,6.1,1.9,1.2,2.4,2.4,1.4,4.1-.9,1.5,1.1,1.5,1.1,2.8-1,1-2.1,2-3.2,3.2-.8.9-2.6,1.5-1.3,3.5.5.8-.7,1.4-1.5,1.8-3.6,1.9-5.8,4.7-6.9,8.7-.9,3.1-4.3,2.9-6.5,4.3-1.7,1-3.6,1.6-5.3,2.8-1.5,1.1-3.8.2-5.5,1.3"/>
          <path class="cls-2" d="M759.2,58.4c-.7-.3-.8-1.1-1.5-1.6-3.4-2.3-3.3-2.4-6.4,0-.7-.7-1.4-1.4-2.1-2.1,1.7-2.8,1.3-4.1-2.3-7.4-3.5,3.7-5.9.3-8.1-1.8-2.2-2.1-3.6-2.4-5.4,0-.8,1.1-2.2,1-3,.3-2.3-2.2-3.7-.3-4,1.3-.8,4-4.4,5.7-6.4,8.7-.4.7-1.5.4-2.2-.3-.4-.4,0-.9-.3-1.2s-.6-.4-1.2-.7c-.5,1.2-1.7,1.8-3.1,2.6-1.6-1.8-3.5-2.7-6-1.1-.3.2-1.4.9-2.1,0-1.6-1.7-4.7.7-6-2.1,0-.3-1.2,0-1.8.5-1,.8-2.4.7-3.7.7-2.2,0-4.1-.3-6-1.8-2.4-1.9-6.2-2-7.4-5.7-.2-.6-.9,0-1.2-.3-1.5-1.2-4.6-1.3-3.2-4.7.4-1-.9-1.3-1.8-1.2-.6,0-.6,1.5-1.6.6"/>
          <path class="cls-2" d="M624.1,23.6c-.7-1.2,0-1.8,1.1-2.3,1.9.9,3.6,2.2,4.1,4.5.3,1.3,1.2,1.8,2.2,1.8,1.5,0,2.7.8,3.7,1.6,1.1.9,1.9,1.4,3.2.3.3-.3,1.2-.3,1.5,0,2.4,2.4,6.5,2.8,7.5,6,1.8.5,3.3-.4,4.7.8,1.7,1.3,3.7.9,4.2-.9,1-3.2,3.3-2.6,5.4-2.3.9,0,2-.3,3.1.8.7.6-.4,1.2-.6,2.1,2.2.7,4.1,1.8,5.9,3.2.5-.4.7-1.2,1.3-1,1.5.8.4,2.3,1.2,3.2"/>
          <path class="cls-2" d="M208,253.5c-2.2-2.1-3.9.7-6,.1-.5-.4-1.1-1.2-2.1-1.7-1.2,1.5-1.7,3.9-4.3,3.9s-.9.8-.9,1.2c.2,3.5-2,3.9-4.7,3.8-.4,0-.8.4-1.3.6-1.9-2.5.9-3.4,1.8-5.1-1.4-1.6-3.8-1.3-4.7-.6-1.6,1.2-3.5,1.2-5.1,2-1.6.7-3.1,1.2-4.1,2.8-.9,1.4-2,2.3-4.1.8-1.4-1.1-3.7-1.1-5.4,1.1-.8-3.2-4.6,1-5.4-2.6.5-.8,1.1-1.7,1.7-2.7-1.9-3.1-5.2-5.2-6.5-8.9-.3-.9-2.2-1.2-3.3-.3-1.5,1.1-2.4.4-3.4-.6.9-3,3.9-2.6,6-3.6-1.9-3.9-4.2-4.3-7.9-2.4-1.7.9-4,.7-5.8,2.8-1.9-2.9-5.3-3.2-7.7-4.8-2.7-1.8-4.9-2.9-8.2-3.1-3.7-.2-4-.6-5.6,2.6-.3.6-.6,1.3-.7,1.6-4.1.2-7.9.3-10.8-2.8"/>
          <path class="cls-2" d="M704.9,146.3c-1-.4-2-1.9-1.8-2.1,1-1,.3-1.5-.4-1.6-1.6-.3-1.8-2-3-2.6.3-.6.5-1.1.8-1.4,1.7-1.9,2.8-3.7.4-6-1.1-1,.2-4.8,1.8-6.2,1.7.6,3.3,1.3,3.8,3.5,1.7-1.5,2.9-2.9,4.5-3.9.9-.6.2-1.2-.6-1.5h1.2c2-.4,3.7-1.1,4.9-2.8,2.6,1.3,4.3.7,4.9-2.8.5-2.5,2.2-2.1,3.6-2.4,1-.2,2.2.5,2.2,2.1,0,2.6,1.4,4.1,3.7,5l.3-.6c.5-1,1.5-1.4,3-1.2,0,1.7.2,3.4,2.6,3.5.7,0,1.6.6,1,1.8-.9,1.7.8,2.2,1.6,3.2-.4,1-.8,2-1.3,3-1.6,3.4-1.2,6.4,2.8,8.4,1.1.6,1.4,1.7,1.2,2.8-.3,1.6-1.6.6-2.4.6-1.5,0-2.2-1-3.1-1.9-2.2-2-3.8-1.7-5.6.6-.5.7-1.1,1.4-2.2,1.3-.5,0-1.5-.3-1.5.3,0,1.9-2,2.9-2.8,2.6-2-.7-4.2,0-6-1.4-1.5-1.1-3.3-2.7-4.4.6,0,.4-.9.7-1.5.3-3.2-2.1-6.4-1.7-9.6,0l1.9-1.2h0Z"/>
          <path class="cls-2" d="M550.4,177.1c1.1,1.8,2.1,3.7,3.5,5.2,1.6,1.8.7,2.7-.7,3.8-1.3,1-3.1,1.3-3.8,2.1-.7,1.9.8,2.2,1,2.9,0,1.5-1.7,1.8-1.5,3.1.2,1,1.3,1.1,1.9,1.8"/>
          <path class="cls-2" d="M251.5,233.6c-2.9-.9-5.5-3.4-9.1-1.6-1,.5-2.5,0-3.7-.2-2.3-.4-3.8,0-6.2,1.3-1.1-.4-1.5-1.5-2.2-2.2-2.4.4-3.5,2.3-4.2,4.1-.4,1.1-.6,2.4-1.4,3.3-1,1.2.1,1.6.6,2.2"/>
          <path class="cls-2" d="M540.5,73.3c-.3.8-.8,1.3-1.6,1.6-1.9-.7,0-3-1.9-3.8-2.1,0-3.3,2-4.9,3.4-1.7-1.6-3.9-2.2-5.8-1.6-2.3-1.5-2.3-6.5-7.3-4.4.9,1.1,1.6,2,2.4,3-.9,2.1-1.9,4.3-4.2,5.4-1.2,0-2.4-1.9-3.8-.3-.3,1,.4,1.4.9,1.9,1.2,1.6-1,2.2-1.1,2.1-2.2-2.2-2.2.5-2.9,1.3-.7.9-1.3,2-2.5,3.2-.6-3.1-3.8-3.6-5-6-.4-.8-1.1-1.7-1.8-1.2-1.9,1.5-3.4,0-4.7-.8-2.9-1.6-6.1-.4-9.1-1.4-.4,0-1.2.9-2.1,1.6-1.3-2-4.2-1.8-5.6-3.6-1.3-1.7-2.3-3.4-4.6-4.5,1.1-1,1.9-1.8,2.6-2.6"/>
          <path class="cls-2" d="M477.7,65.8c.5,1.4,1.4,1.5,2.1.3.5-.8,1-2.1-.6-2.4-2.4-.4-3.4-2.2-4.3-4.1-.4-.8-.8-1.8-1.9-1.5-3.6,1-5.2-1.6-7.2-3.8-1.8-2-3.4-4.3-6-5.5-1.9,0-3.1,1.6-4.1,3.1-.5.7-1.5,2.8,1.1,2.7"/>
          <path class="cls-2" d="M226.4,240.8c-2.7,1.3-5,3.7-8.4,2.5-2.2,2.4-4.5.8-6.5-.1-1.9-.9-3.1-.2-3.7,1.1-1,2-2.7,3.3-3.7,4.5-.5,2.4,2.6,1.5,2.4,3.5"/>
          <path class="cls-2" d="M540.8,74.2c1.1,1.9,1.5,4.1,4.7,3.9,1.6,0,3.3,1.7,5,2.6"/>
          <path class="cls-2" d="M689.3,241.1c.8-.1,1.9.4,2.5-.6,1.5,2,1.7,3.8.6,5.3l.9.3c.3,1.6,3.1,9.1,3.7,9.9l.6.8"/>
        </g>
        <line class="cls-1" x1="687.7" y1="262.3" x2="688.4" y2="261.2"/>
      </g>
    </g>
  </g>
</svg>