<?xml version="1.0" encoding="UTF-8"?>
<svg id="AUSTRIA" xmlns="http://www.w3.org/2000/svg" viewBox="0 0 470.33 249.33">
  <polygon points="445.67 52.09 445.67 55.84 444.18 59.58 440.44 72.32 442.68 77.57 445.67 82.81 448.66 92.55 456.13 94.05 460.62 99.29 456.13 114.28 453.15 117.28 451.65 123.27 454.64 128.52 445.67 132.26 440.44 133.76 436.7 133.76 425.49 133.76 418.02 142.75 435.95 145 429.23 156.24 420.26 157.74 420.26 170.47 424 179.47 421.75 183.21 424 186.96 420.26 189.21 412.04 194.45 407.55 198.2 401.57 198.2 389.61 203.44 391.11 216.18 383.64 218.43 373.92 216.18 361.96 232.66 352.99 231.16 329.82 225.17 322.35 227.42 312.63 234.91 305.16 240.16 284.98 236.41 261.06 231.16 245.36 225.17 208.74 222.17 188.56 213.18 173.61 205.69 169.87 199.69 162.4 190.7 162.4 181.71 168.38 178.72 166.88 174.97 162.4 174.22 138.48 177.97 116.81 176.47 104.1 179.47 89.15 192.95 78.69 194.45 80.93 187.71 78.69 183.21 70.47 186.96 64.49 183.21 63.74 177.22 60 172.72 54.02 179.47 45.06 185.46 31.6 179.47 27.12 170.47 16.65 165.23 9.93 151.74 12.17 139.01 21.14 127.02 26.37 117.28 39.08 130.01 42.81 133.76 42.81 139.01 50.29 147.25 60 145 65.98 132.26 77.19 127.02 83.17 130.01 93.64 128.52 92.14 133.76 98.12 136.01 101.11 141.25 111.58 141.25 112.32 145 122.79 136.01 134.75 133.76 154.93 130.01 168.38 124.77 174.36 121.02 179.59 121.02 187.06 119.52 201.27 123.27 204.26 132.26 212.48 139.01 218.46 139.01 217.71 127.02 210.23 121.02 210.23 110.53 213.22 101.54 207.99 97.05 205.75 92.55 209.49 85.06 214.72 81.31 237.89 76.07 243.87 67.08 248.35 55.84 251.34 48.34 259.56 52.09 262.55 55.84 265.54 48.34 268.53 39.35 271.52 34.86 280.49 36.36 283.48 43.85 293.2 52.09 305.16 43.85 314.13 49.09 320.85 46.85 323.84 36.36 326.83 30.36 328.33 18.37 329.82 13.13 338.79 14.63 343.28 19.87 352.99 18.37 363.45 23.62 370.93 30.36 379.9 30.36 383.64 31.11 388.12 34.86 398.58 40.1 407.55 40.1 412.04 40.1 416.52 34.86 424 36.36 436.7 43.1 444.18 49.09 445.67 52.09" style="fill: none; stroke: #231f20; stroke-linecap: square; stroke-miterlimit: 10; stroke-width: 1.5px;"/>
</svg>